<svg xmlns="http://www.w3.org/2000/svg" viewBox="0 0 64 64" fill="none">
  <defs>
    <linearGradient id="g" x1="0%" y1="0%" x2="100%" y2="100%">
      <stop offset="0%" stop-color="#5451e8" />
      <stop offset="100%" stop-color="#a855f7" />
    </linearGradient>
  </defs>
  <rect width="64" height="64" rx="14" fill="url(#g)" />
  <path d="M32 12C24.268 12 18 17.373 18 24v4h-2a2 2 0 0 0-2 2v20a2 2 0 0 0 2 2h32a2 2 0 0 0 2-2V30a2 2 0 0 0-2-2h-2v-4c0-6.627-6.268-12-14-12zm-8 12c0-4.418 3.582-8 8-8s8 3.582 8 8v4H24v-4zm10 18.732V46h-4v-3.268a3 3 0 1 1 4 0z" fill="white" fill-opacity="0.95"/>
</svg>
